<?xml version="1.0" encoding="UTF-8"?>
<svg id="b" data-name="Layer 2" xmlns="http://www.w3.org/2000/svg" viewBox="0 0 163.58 61.45">
  <g id="c" data-name="Layer 3">
    <g>
      <polygon points="39.68 1.04 39.11 1.04 .58 1.04 0 1.04 0 1.68 0 59.93 0 60.57 .58 60.57 39.11 60.57 39.68 60.57 39.68 59.93 39.68 1.68 39.68 1.04 39.68 1.04" style="fill: #fff;"/>
      <g>
        <path d="M39.11,1.68v58.25H.58V1.68h38.53" style="fill: #231f20;"/>
        <rect x="2.52" y="3.75" width="34.38" height="9.66" style="fill: #fff;"/>
        <rect x="2.5" y="15.51" width="34.4" height="35.51" style="fill: #fff;"/>
        <g>
          <polygon points="2.51 57.83 2.51 53.11 9.41 53.11 9.41 54.22 5.28 54.22 5.28 54.89 8.78 54.89 8.78 55.99 5.28 55.99 5.28 56.73 9.57 56.73 9.57 57.83 2.51 57.83" style="fill: #fff;"/>
          <path d="M15.44,54.49c-.04-.16-.2-.26-.4-.32-.2-.06-.44-.09-.72-.09-.61,0-.88.1-.88.28,0,.7,4.87.26,4.87,1.97,0,1.09-1.64,1.62-3.96,1.62s-3.69-.73-3.75-1.58h2.66c.06.17.22.29.46.37.22.08.51.12.79.12.69,0,1.15-.12,1.15-.35,0-.71-4.87-.22-4.87-2.02,0-1,1.55-1.5,3.67-1.5,2.35,0,3.42.67,3.62,1.49h-2.64Z" style="fill: #fff;"/>
          <path d="M22.46,55.16h1.09c.86,0,1.32-.12,1.32-.45s-.47-.49-1.12-.49h-1.29v.94ZM22.46,56.19v1.64h-2.77v-4.71h4c2.82,0,3.75.43,3.75,1.35,0,.54-.43,1-1.42,1.16.89.18,1.43.29,1.43,1.24,0,.61-.04.83.29.83v.14h-2.81c-.07-.11-.14-.41-.14-.82,0-.62-.19-.82-1.48-.82h-.85Z" style="fill: #fff;"/>
          <path d="M31.91,54.22v.79h1.16c.55,0,.95-.14.95-.41,0-.37-.55-.38-1.13-.38h-.98ZM31.91,55.86v.87h1.21c.69,0,1.2-.08,1.2-.43,0-.41-.64-.44-1.53-.44h-.88ZM29.14,57.83v-4.71h4.05c1.91,0,3.42.26,3.42,1.19,0,.49-.57.84-1.11,1.02.92.13,1.41.57,1.41,1.08,0,1.05-1.44,1.42-3.65,1.42h-4.13Z" style="fill: #fff;"/>
        </g>
        <polygon points="3.75 24.31 14.29 21.46 20.31 35.63 20.36 35.61 18.55 20.33 29.09 17.49 35.67 42.22 29.25 43.95 24.54 26.26 24.49 26.28 26.48 44.69 19.53 46.57 12.11 29.62 12.06 29.63 16.75 47.31 10.33 49.04 3.75 24.31" style="fill: #231f20;"/>
        <g>
          <path d="M3.47,11.3v-5.47h1.55l.72,3.72h.01l.77-3.72h1.5v5.47h-.94v-4.22h-.01l-.89,4.22h-.92l-.84-4.22h-.01v4.22h-.94Z" style="fill: #231f20;"/>
          <path d="M8.46,11.3l1.28-5.47h1.27l1.25,5.47h-1.02l-.25-1.21h-1.32l-.26,1.21h-.95ZM10.32,6.88h-.01l-.44,2.36h.92l-.47-2.36Z" style="fill: #231f20;"/>
          <path d="M15.08,5.83v.91h-1.07v4.56h-.97v-4.56h-1.07v-.91h3.11Z" style="fill: #231f20;"/>
          <path d="M18.65,5.83v3.88c0,.21-.03.41-.08.61-.05.2-.14.38-.26.54-.12.16-.28.29-.48.39-.2.1-.45.15-.74.15-.53,0-.93-.15-1.19-.45-.26-.3-.39-.71-.39-1.23v-3.88h.96v3.8c0,.34.05.58.16.72.11.14.25.22.43.22.21,0,.37-.08.47-.24.1-.16.15-.39.15-.7v-3.8h.96Z" style="fill: #231f20;"/>
          <path d="M20.38,11.3h-.97v-5.47h1.78c.33,0,.6.12.79.37.19.24.29.6.29,1.07,0,.35-.07.64-.2.89s-.35.39-.66.45v.02c.05,0,.12.03.22.04.09.02.19.07.28.14.09.07.17.17.24.31.07.14.1.33.1.58,0,.09,0,.21,0,.36,0,.16,0,.32.02.49s.02.32.04.46c.01.14.03.24.05.3h-.95c-.06-.17-.1-.34-.1-.52,0-.18,0-.36,0-.54,0-.16,0-.32,0-.46,0-.15-.02-.27-.06-.38-.04-.11-.11-.2-.21-.26s-.24-.1-.42-.1h-.25v2.27ZM20.38,8.2h.43c.09,0,.17-.02.24-.08.06-.05.11-.12.15-.19.04-.08.07-.17.08-.26.01-.1.02-.19.02-.27,0-.26-.04-.45-.13-.56-.09-.11-.21-.16-.36-.16h-.43v1.52Z" style="fill: #231f20;"/>
          <path d="M22.99,11.3v-5.47h2.52v.84h-1.55v1.35h1.43v.84h-1.43v1.6h1.6v.84h-2.57Z" style="fill: #231f20;"/>
          <path d="M27.52,6.65c.16-.11.32-.23.47-.37.15-.14.28-.3.39-.48h.86v5.5h-.97v-4.23c-.11.12-.23.23-.36.33-.13.1-.26.19-.39.28v-1.03Z" style="fill: #231f20;"/>
          <path d="M32.64,6.85l-1.09,4.45h-1l1.22-4.65h-1.53v-.85h2.4v1.05Z" style="fill: #231f20;"/>
          <path d="M34.12,6.89h.71v1.49h1.08v.84h-1.08v1.49h-.71v-1.49h-1.09v-.84h1.09v-1.49Z" style="fill: #231f20;"/>
        </g>
      </g>
    </g>
    <g>
      <rect x="48.83" y="1.28" width="114.75" height="47.05" style="fill: none;"/>
      <path d="M49.67,7.72V1.28h.85v6.44h-.85Z" style="fill: #fff;"/>
      <path d="M51.93,7.72V3.06h.71v.66c.34-.51.84-.77,1.49-.77.28,0,.54.05.78.15.24.1.41.23.53.4s.2.36.25.58c.03.15.04.4.04.77v2.87h-.79v-2.84c0-.32-.03-.56-.09-.72-.06-.16-.17-.29-.33-.38-.16-.09-.34-.14-.55-.14-.34,0-.63.11-.87.32s-.37.62-.37,1.22v2.55h-.79Z" style="fill: #fff;"/>
      <path d="M58.66,7.02l.11.7c-.22.05-.42.07-.6.07-.29,0-.51-.05-.67-.14-.16-.09-.27-.21-.33-.36-.06-.15-.1-.46-.1-.93v-2.68h-.58v-.62h.58v-1.16l.79-.47v1.63h.8v.62h-.8v2.73c0,.23.01.37.04.43s.07.12.14.15c.06.04.15.06.27.06.09,0,.2,0,.35-.03Z" style="fill: #fff;"/>
      <path d="M62.63,6.22l.82.1c-.13.48-.37.85-.72,1.11s-.79.4-1.34.4c-.68,0-1.22-.21-1.62-.63-.4-.42-.6-1.01-.6-1.77s.2-1.39.61-1.83.93-.65,1.57-.65,1.13.21,1.53.64.59,1.02.59,1.79c0,.05,0,.12,0,.21h-3.48c.03.51.17.9.44,1.18.26.27.59.41.98.41.29,0,.54-.08.74-.23s.37-.4.49-.73ZM60.03,4.94h2.61c-.04-.39-.13-.69-.3-.88-.25-.3-.58-.46-.98-.46-.36,0-.67.12-.92.36-.25.24-.38.57-.41.98Z" style="fill: #fff;"/>
      <path d="M64.44,7.72V3.06h.71v.66c.34-.51.84-.77,1.49-.77.28,0,.54.05.78.15.24.1.41.23.53.4s.2.36.25.58c.03.15.04.4.04.77v2.87h-.79v-2.84c0-.32-.03-.56-.09-.72-.06-.16-.17-.29-.33-.38-.16-.09-.34-.14-.55-.14-.34,0-.63.11-.87.32s-.37.62-.37,1.22v2.55h-.79Z" style="fill: #fff;"/>
      <path d="M69.13,6.33l.78-.12c.04.31.17.55.37.72.2.17.48.25.84.25s.63-.07.81-.22c.18-.15.26-.32.26-.52,0-.18-.08-.32-.23-.42-.11-.07-.38-.16-.81-.27-.58-.15-.98-.27-1.21-.38-.22-.11-.39-.25-.51-.44-.12-.19-.17-.4-.17-.63,0-.21.05-.4.14-.58.09-.18.22-.32.39-.44.12-.09.29-.17.5-.23.21-.06.44-.09.68-.09.37,0,.69.05.96.16.28.11.48.25.61.43.13.18.22.42.27.72l-.77.11c-.04-.24-.14-.43-.31-.56-.17-.13-.41-.2-.71-.2-.36,0-.62.06-.78.18s-.23.26-.23.42c0,.1.03.19.1.28.06.08.17.16.3.21.08.03.31.1.7.2.56.15.95.27,1.17.37.22.09.39.23.52.42s.19.41.19.68-.08.51-.23.75c-.15.23-.38.41-.67.54-.29.13-.62.19-.98.19-.61,0-1.07-.13-1.39-.38-.32-.25-.52-.62-.61-1.12Z" style="fill: #fff;"/>
      <path d="M77.14,6.22l.82.1c-.13.48-.37.85-.72,1.11s-.79.4-1.34.4c-.68,0-1.22-.21-1.62-.63-.4-.42-.6-1.01-.6-1.77s.2-1.39.61-1.83.93-.65,1.57-.65,1.13.21,1.53.64.59,1.02.59,1.79c0,.05,0,.12,0,.21h-3.48c.03.51.17.9.44,1.18.26.27.59.41.98.41.29,0,.54-.08.74-.23s.37-.4.49-.73ZM74.54,4.94h2.61c-.04-.39-.13-.69-.3-.88-.25-.3-.58-.46-.98-.46-.36,0-.67.12-.92.36-.25.24-.38.57-.41.98Z" style="fill: #fff;"/>
      <path d="M83.39,7.72l-2.5-6.44h.92l1.67,4.68c.13.38.25.73.34,1.05.1-.35.22-.7.35-1.05l1.74-4.68h.87l-2.52,6.44h-.87Z" style="fill: #fff;"/>
      <path d="M87.29,2.19v-.91h.79v.91h-.79ZM87.29,7.72V3.06h.79v4.67h-.79Z" style="fill: #fff;"/>
      <path d="M88.99,5.39c0-.86.24-1.5.72-1.92.4-.35.89-.52,1.47-.52.64,0,1.17.21,1.57.63.41.42.61,1,.61,1.74,0,.6-.09,1.07-.27,1.42-.18.34-.44.61-.79.8-.34.19-.72.29-1.13.29-.65,0-1.18-.21-1.58-.63-.4-.42-.6-1.02-.6-1.81ZM89.81,5.39c0,.6.13,1.05.39,1.34.26.3.59.45.98.45s.72-.15.98-.45.39-.75.39-1.37c0-.58-.13-1.01-.39-1.31-.26-.3-.59-.45-.98-.45s-.72.15-.98.44-.39.74-.39,1.34Z" style="fill: #fff;"/>
      <path d="M94.28,7.72V1.28h.79v6.44h-.79Z" style="fill: #fff;"/>
      <path d="M99.49,6.22l.82.1c-.13.48-.37.85-.72,1.11s-.79.4-1.34.4c-.68,0-1.22-.21-1.62-.63-.4-.42-.6-1.01-.6-1.77s.2-1.39.61-1.83.93-.65,1.57-.65,1.13.21,1.53.64.59,1.02.59,1.79c0,.05,0,.12,0,.21h-3.48c.03.51.17.9.44,1.18.26.27.59.41.98.41.29,0,.54-.08.74-.23s.37-.4.49-.73ZM96.89,4.94h2.61c-.04-.39-.13-.69-.3-.88-.25-.3-.58-.46-.98-.46-.36,0-.67.12-.92.36-.25.24-.38.57-.41.98Z" style="fill: #fff;"/>
      <path d="M101.3,7.72V3.06h.71v.66c.34-.51.84-.77,1.49-.77.28,0,.54.05.78.15.24.1.41.23.53.4s.2.36.25.58c.03.15.04.4.04.77v2.87h-.79v-2.84c0-.32-.03-.56-.09-.72-.06-.16-.17-.29-.33-.38-.16-.09-.34-.14-.55-.14-.34,0-.63.11-.87.32s-.37.62-.37,1.22v2.55h-.79Z" style="fill: #fff;"/>
      <path d="M109.35,6.01l.78.1c-.08.54-.3.96-.65,1.26-.35.3-.78.46-1.29.46-.64,0-1.15-.21-1.54-.63-.39-.42-.58-1.02-.58-1.8,0-.5.08-.94.25-1.32s.42-.66.76-.85c.34-.19.71-.28,1.11-.28.51,0,.92.13,1.24.38.32.26.53.62.62,1.09l-.77.12c-.07-.31-.2-.55-.39-.71s-.41-.24-.67-.24c-.4,0-.72.14-.97.43-.25.29-.37.74-.37,1.36s.12,1.08.36,1.37.55.43.94.43c.31,0,.57-.09.78-.29s.34-.48.4-.88Z" style="fill: #fff;"/>
      <path d="M114,6.22l.82.1c-.13.48-.37.85-.72,1.11s-.79.4-1.34.4c-.68,0-1.22-.21-1.62-.63-.4-.42-.6-1.01-.6-1.77s.2-1.39.61-1.83.93-.65,1.57-.65,1.13.21,1.53.64.59,1.02.59,1.79c0,.05,0,.12,0,.21h-3.48c.03.51.17.9.44,1.18.26.27.59.41.98.41.29,0,.54-.08.74-.23s.37-.4.49-.73ZM111.4,4.94h2.61c-.04-.39-.13-.69-.3-.88-.25-.3-.58-.46-.98-.46-.36,0-.67.12-.92.36-.25.24-.38.57-.41.98Z" style="fill: #fff;"/>
      <path d="M116.02,7.72v-.9h.9v.9c0,.33-.06.6-.18.8-.12.2-.3.36-.56.47l-.22-.34c.17-.07.29-.18.37-.32.08-.14.12-.35.13-.61h-.45Z" style="fill: #fff;"/>
      <path d="M120.88,7.72V1.28h2.42c.49,0,.89.07,1.18.2.3.13.53.33.7.6.17.27.25.55.25.85,0,.28-.07.54-.22.78s-.38.44-.68.59c.39.11.69.31.9.58.21.28.31.6.31.98,0,.3-.06.58-.19.84-.13.26-.29.46-.47.6s-.42.25-.71.32c-.28.07-.63.11-1.04.11h-2.46ZM121.73,3.99h1.39c.38,0,.65-.02.81-.08.22-.06.38-.17.49-.32.11-.15.16-.34.16-.56,0-.21-.05-.4-.15-.56-.1-.16-.25-.27-.44-.33-.19-.06-.52-.09-.98-.09h-1.29v1.95ZM121.73,6.96h1.6c.28,0,.47-.01.58-.03.2-.04.36-.09.49-.18s.24-.2.33-.36c.08-.16.13-.34.13-.54,0-.24-.06-.45-.18-.63-.12-.18-.29-.3-.51-.37-.22-.07-.53-.11-.94-.11h-1.49v2.21Z" style="fill: #fff;"/>
      <path d="M126.8,7.72V1.28h.79v6.44h-.79Z" style="fill: #fff;"/>
      <path d="M128.52,5.39c0-.86.24-1.5.72-1.92.4-.35.89-.52,1.47-.52.64,0,1.17.21,1.57.63.41.42.61,1,.61,1.74,0,.6-.09,1.07-.27,1.42-.18.34-.44.61-.79.8-.34.19-.72.29-1.13.29-.65,0-1.18-.21-1.58-.63-.4-.42-.6-1.02-.6-1.81ZM129.33,5.39c0,.6.13,1.05.39,1.34.26.3.59.45.98.45s.72-.15.98-.45.39-.75.39-1.37c0-.58-.13-1.01-.39-1.31-.26-.3-.59-.45-.98-.45s-.72.15-.98.44-.39.74-.39,1.34Z" style="fill: #fff;"/>
      <path d="M133.52,5.39c0-.86.24-1.5.72-1.92.4-.35.89-.52,1.47-.52.64,0,1.17.21,1.57.63.41.42.61,1,.61,1.74,0,.6-.09,1.07-.27,1.42-.18.34-.44.61-.79.8-.34.19-.72.29-1.13.29-.65,0-1.18-.21-1.58-.63-.4-.42-.6-1.02-.6-1.81ZM134.34,5.39c0,.6.13,1.05.39,1.34.26.3.59.45.98.45s.72-.15.98-.45.39-.75.39-1.37c0-.58-.13-1.01-.39-1.31-.26-.3-.59-.45-.98-.45s-.72.15-.98.44-.39.74-.39,1.34Z" style="fill: #fff;"/>
      <path d="M141.85,7.72v-.59c-.3.46-.73.69-1.31.69-.37,0-.71-.1-1.03-.31-.31-.21-.55-.49-.73-.86-.17-.37-.26-.79-.26-1.27s.08-.89.23-1.27c.16-.38.39-.67.7-.87.31-.2.66-.3,1.04-.3.28,0,.53.06.75.18.22.12.4.27.54.46V1.28h.79v6.44h-.73ZM139.35,5.39c0,.6.13,1.04.38,1.34s.55.44.89.44.64-.14.88-.42c.24-.28.36-.71.36-1.29,0-.64-.12-1.11-.37-1.41s-.55-.45-.91-.45-.65.14-.88.43c-.24.29-.35.74-.35,1.36Z" style="fill: #fff;"/>
      <path d="M149.38,7.15c-.29.25-.58.43-.85.53-.27.1-.56.15-.87.15-.51,0-.91-.12-1.18-.38-.28-.25-.41-.57-.41-.96,0-.23.05-.44.16-.63.1-.19.24-.34.41-.46s.36-.2.57-.26c.16-.04.39-.08.7-.12.64-.08,1.11-.17,1.41-.27,0-.11,0-.18,0-.21,0-.32-.07-.55-.22-.68-.2-.18-.5-.27-.9-.27-.37,0-.65.06-.82.2-.18.13-.31.36-.39.69l-.77-.11c.07-.33.19-.6.35-.8.16-.2.39-.36.7-.47.3-.11.66-.17,1.06-.17s.72.05.97.14.43.21.55.35c.12.14.2.32.25.54.03.14.04.38.04.73v1.05c0,.74.02,1.2.05,1.39.03.2.1.38.2.56h-.83c-.08-.16-.13-.36-.16-.58ZM149.31,5.38c-.29.12-.72.22-1.29.3-.33.05-.56.1-.69.16s-.24.14-.31.26c-.07.11-.11.24-.11.38,0,.21.08.39.24.53s.39.21.7.21.58-.07.81-.2c.24-.13.41-.32.52-.55.08-.18.13-.44.13-.79v-.29Z" style="fill: #fff;"/>
      <path d="M151.34,7.72V3.06h.71v.66c.34-.51.84-.77,1.49-.77.28,0,.54.05.78.15.24.1.41.23.53.4s.2.36.25.58c.03.15.04.4.04.77v2.87h-.79v-2.84c0-.32-.03-.56-.09-.72-.06-.16-.17-.29-.33-.38-.16-.09-.34-.14-.55-.14-.34,0-.63.11-.87.32s-.37.62-.37,1.22v2.55h-.79Z" style="fill: #fff;"/>
      <path d="M159.37,7.72v-.59c-.3.46-.73.69-1.31.69-.37,0-.71-.1-1.03-.31-.31-.21-.55-.49-.73-.86-.17-.37-.26-.79-.26-1.27s.08-.89.23-1.27c.16-.38.39-.67.7-.87.31-.2.66-.3,1.04-.3.28,0,.53.06.75.18.22.12.4.27.54.46V1.28h.79v6.44h-.73ZM156.87,5.39c0,.6.13,1.04.38,1.34s.55.44.89.44.64-.14.88-.42c.24-.28.36-.71.36-1.29,0-.64-.12-1.11-.37-1.41s-.55-.45-.91-.45-.65.14-.88.43c-.24.29-.35.74-.35,1.36Z" style="fill: #fff;"/>
      <path d="M52.54,16v-.76h2.73s0,2.39,0,2.39c-.42.33-.85.58-1.3.75-.45.17-.9.25-1.37.25-.63,0-1.21-.13-1.72-.41-.52-.27-.91-.66-1.17-1.18-.26-.51-.4-1.08-.4-1.72s.13-1.21.39-1.76c.26-.54.64-.95,1.13-1.21s1.06-.4,1.7-.4c.47,0,.89.08,1.26.23.38.15.67.36.89.63s.38.62.49,1.05l-.77.21c-.1-.33-.22-.59-.36-.77s-.35-.34-.62-.45c-.27-.11-.56-.17-.89-.17-.39,0-.73.06-1.01.18-.28.12-.51.27-.69.47-.17.19-.31.41-.41.64-.16.4-.25.83-.25,1.3,0,.57.1,1.05.3,1.44.2.39.49.67.86.86s.78.28,1.2.28c.37,0,.73-.07,1.08-.21.35-.14.62-.29.8-.46v-1.2h-1.89Z" style="fill: #fff;"/>
      <path d="M56.13,16.19c0-.86.24-1.5.72-1.92.4-.35.89-.52,1.47-.52.64,0,1.17.21,1.57.63.41.42.61,1,.61,1.74,0,.6-.09,1.07-.27,1.42-.18.34-.44.61-.79.8-.34.19-.72.29-1.13.29-.65,0-1.18-.21-1.58-.63-.4-.42-.6-1.02-.6-1.81ZM56.95,16.19c0,.6.13,1.05.39,1.34.26.3.59.45.98.45s.72-.15.98-.45.39-.75.39-1.37c0-.58-.13-1.01-.39-1.31-.26-.3-.59-.45-.98-.45s-.72.15-.98.44-.39.74-.39,1.34Z" style="fill: #fff;"/>
      <path d="M61.42,18.52v-4.67h.71v.71c.18-.33.35-.55.5-.66.15-.11.32-.16.51-.16.27,0,.54.08.81.25l-.27.73c-.19-.12-.39-.17-.58-.17-.17,0-.33.05-.47.16-.14.1-.24.25-.29.43-.09.28-.13.59-.13.92v2.44h-.79Z" style="fill: #fff;"/>
      <path d="M67.62,17.02l.82.1c-.13.48-.37.85-.72,1.11s-.79.4-1.34.4c-.68,0-1.22-.21-1.62-.63-.4-.42-.6-1.01-.6-1.77s.2-1.39.61-1.83.93-.65,1.57-.65,1.13.21,1.53.64.59,1.02.59,1.79c0,.05,0,.12,0,.21h-3.48c.03.51.17.9.44,1.18.26.27.59.41.98.41.29,0,.54-.08.74-.23s.37-.4.49-.73ZM65.03,15.74h2.61c-.04-.39-.13-.69-.3-.88-.25-.3-.58-.46-.98-.46-.36,0-.67.12-.92.36-.25.24-.38.57-.41.98Z" style="fill: #fff;"/>
      <path d="M69.64,18.52v-.9h.9v.9c0,.33-.06.6-.18.8-.12.2-.3.36-.56.47l-.22-.34c.17-.07.29-.18.37-.32.08-.14.12-.35.13-.61h-.45Z" style="fill: #fff;"/>
      <path d="M74.25,16.45l.8-.07c.04.32.13.59.27.79.14.21.35.37.65.5.29.13.62.19.99.19.33,0,.61-.05.86-.15s.43-.23.56-.4c.12-.17.18-.35.18-.55s-.06-.38-.18-.53c-.12-.15-.31-.28-.58-.38-.17-.07-.56-.17-1.15-.31-.59-.14-1.01-.28-1.24-.4-.31-.16-.54-.36-.69-.6-.15-.24-.23-.51-.23-.8,0-.32.09-.63.28-.91.18-.28.45-.5.81-.64s.75-.22,1.18-.22c.48,0,.9.08,1.26.23.36.15.65.38.84.68s.3.64.32,1.02l-.82.06c-.04-.41-.19-.71-.45-.92-.25-.21-.63-.31-1.12-.31s-.89.09-1.13.28c-.24.19-.35.42-.35.68,0,.23.08.42.25.57.16.15.59.3,1.29.46.69.16,1.17.29,1.43.41.38.17.65.39.83.66.18.26.27.57.27.92s-.1.67-.29.97c-.2.3-.48.54-.85.71-.37.17-.78.25-1.24.25-.58,0-1.07-.08-1.47-.25-.39-.17-.7-.43-.93-.77-.22-.34-.34-.73-.35-1.16Z" style="fill: #fff;"/>
      <path d="M82.17,17.82l.11.7c-.22.05-.42.07-.6.07-.29,0-.51-.05-.67-.14-.16-.09-.27-.21-.33-.36-.06-.15-.1-.46-.1-.93v-2.68h-.58v-.62h.58v-1.16l.79-.47v1.63h.8v.62h-.8v2.73c0,.23.01.37.04.43s.07.12.14.15c.06.04.15.06.27.06.09,0,.2,0,.35-.03Z" style="fill: #fff;"/>
      <path d="M82.93,18.52v-4.67h.71v.71c.18-.33.35-.55.5-.66.15-.11.32-.16.51-.16.27,0,.54.08.81.25l-.27.73c-.19-.12-.39-.17-.58-.17-.17,0-.33.05-.47.16-.14.1-.24.25-.29.43-.09.28-.13.59-.13.92v2.44h-.79Z" style="fill: #fff;"/>
      <path d="M85.64,16.19c0-.86.24-1.5.72-1.92.4-.35.89-.52,1.47-.52.64,0,1.17.21,1.57.63.41.42.61,1,.61,1.74,0,.6-.09,1.07-.27,1.42-.18.34-.44.61-.79.8-.34.19-.72.29-1.13.29-.65,0-1.18-.21-1.58-.63-.4-.42-.6-1.02-.6-1.81ZM86.45,16.19c0,.6.13,1.05.39,1.34.26.3.59.45.98.45s.72-.15.98-.45.39-.75.39-1.37c0-.58-.13-1.01-.39-1.31-.26-.3-.59-.45-.98-.45s-.72.15-.98.44-.39.74-.39,1.34Z" style="fill: #fff;"/>
      <path d="M90.94,18.52v-4.67h.71v.66c.34-.51.84-.77,1.49-.77.28,0,.54.05.78.15.24.1.41.23.53.4s.2.36.25.58c.03.15.04.4.04.77v2.87h-.79v-2.84c0-.32-.03-.56-.09-.72-.06-.16-.17-.29-.33-.38-.16-.09-.34-.14-.55-.14-.34,0-.63.11-.87.32s-.37.62-.37,1.22v2.55h-.79Z" style="fill: #fff;"/>
      <path d="M95.8,18.91l.77.11c.03.24.12.41.27.52.2.15.46.22.8.22.37,0,.65-.07.85-.22s.33-.35.4-.62c.04-.16.06-.5.06-1.02-.35.41-.78.61-1.29.61-.64,0-1.14-.23-1.49-.69s-.53-1.02-.53-1.67c0-.45.08-.86.24-1.23.16-.38.39-.67.7-.87s.67-.31,1.08-.31c.55,0,1,.22,1.36.67v-.56h.73v4.03c0,.73-.07,1.24-.22,1.54-.15.3-.38.54-.7.72-.32.18-.72.26-1.18.26-.56,0-1.01-.13-1.35-.38-.34-.25-.51-.63-.5-1.13ZM96.46,16.11c0,.61.12,1.06.36,1.34s.55.42.91.42.67-.14.91-.42c.25-.28.37-.72.37-1.32s-.13-1-.38-1.29c-.25-.29-.56-.43-.92-.43s-.65.14-.9.43c-.25.29-.37.71-.37,1.27Z" style="fill: #fff;"/>
      <path d="M103.52,18.52v-6.44h.85v5.68h3.17v.76h-4.03Z" style="fill: #fff;"/>
      <path d="M111.5,17.95c-.29.25-.58.43-.85.53-.27.1-.56.15-.87.15-.51,0-.91-.12-1.18-.38-.28-.25-.41-.57-.41-.96,0-.23.05-.44.16-.63.1-.19.24-.34.41-.46s.36-.2.57-.26c.16-.04.39-.08.7-.12.64-.08,1.11-.17,1.41-.27,0-.11,0-.18,0-.21,0-.32-.07-.55-.22-.68-.2-.18-.5-.27-.9-.27-.37,0-.65.06-.82.2-.18.13-.31.36-.39.69l-.77-.11c.07-.33.19-.6.35-.8.16-.2.39-.36.7-.47.3-.11.66-.17,1.06-.17s.72.05.97.14.43.21.55.35c.12.14.2.32.25.54.03.14.04.38.04.73v1.05c0,.74.02,1.2.05,1.39.03.2.1.38.2.56h-.83c-.08-.16-.13-.36-.16-.58ZM111.44,16.18c-.29.12-.72.22-1.29.3-.33.05-.56.1-.69.16s-.24.14-.31.26c-.07.11-.11.24-.11.38,0,.21.08.39.24.53s.39.21.7.21.58-.07.81-.2c.24-.13.41-.32.52-.55.08-.18.13-.44.13-.79v-.29Z" style="fill: #fff;"/>
      <path d="M113.46,18.52v-4.67h.71v.66c.34-.51.84-.77,1.49-.77.28,0,.54.05.78.15.24.1.41.23.53.4s.2.36.25.58c.03.15.04.4.04.77v2.87h-.79v-2.84c0-.32-.03-.56-.09-.72-.06-.16-.17-.29-.33-.38-.16-.09-.34-.14-.55-.14-.34,0-.63.11-.87.32s-.37.62-.37,1.22v2.55h-.79Z" style="fill: #fff;"/>
      <path d="M118.32,18.91l.77.11c.03.24.12.41.27.52.2.15.46.22.8.22.37,0,.65-.07.85-.22s.33-.35.4-.62c.04-.16.06-.5.06-1.02-.35.41-.78.61-1.29.61-.64,0-1.14-.23-1.49-.69s-.53-1.02-.53-1.67c0-.45.08-.86.24-1.23.16-.38.39-.67.7-.87s.67-.31,1.08-.31c.55,0,1,.22,1.36.67v-.56h.73v4.03c0,.73-.07,1.24-.22,1.54-.15.3-.38.54-.7.72-.32.18-.72.26-1.18.26-.56,0-1.01-.13-1.35-.38-.34-.25-.51-.63-.5-1.13ZM118.98,16.11c0,.61.12,1.06.36,1.34s.55.42.91.42.67-.14.91-.42c.25-.28.37-.72.37-1.32s-.13-1-.38-1.29c-.25-.29-.56-.43-.92-.43s-.65.14-.9.43c-.25.29-.37.71-.37,1.27Z" style="fill: #fff;"/>
      <path d="M126.53,18.52v-.69c-.36.53-.86.79-1.48.79-.28,0-.53-.05-.77-.16s-.42-.24-.53-.4c-.12-.16-.2-.36-.24-.59-.03-.16-.05-.4-.05-.74v-2.89h.79v2.59c0,.41.02.69.05.83.05.21.16.37.32.49.16.12.36.18.6.18s.46-.06.67-.18c.21-.12.35-.29.44-.5.09-.21.13-.51.13-.91v-2.5h.79v4.67h-.71Z" style="fill: #fff;"/>
      <path d="M131.53,17.95c-.29.25-.58.43-.85.53-.27.1-.56.15-.87.15-.51,0-.91-.12-1.18-.38-.28-.25-.41-.57-.41-.96,0-.23.05-.44.16-.63.1-.19.24-.34.41-.46s.36-.2.57-.26c.16-.04.39-.08.7-.12.64-.08,1.11-.17,1.41-.27,0-.11,0-.18,0-.21,0-.32-.07-.55-.22-.68-.2-.18-.5-.27-.9-.27-.37,0-.65.06-.82.2-.18.13-.31.36-.39.69l-.77-.11c.07-.33.19-.6.35-.8.16-.2.39-.36.7-.47.3-.11.66-.17,1.06-.17s.72.05.97.14.43.21.55.35c.12.14.2.32.25.54.03.14.04.38.04.73v1.05c0,.74.02,1.2.05,1.39.03.2.1.38.2.56h-.83c-.08-.16-.13-.36-.16-.58ZM131.46,16.18c-.29.12-.72.22-1.29.3-.33.05-.56.1-.69.16s-.24.14-.31.26c-.07.11-.11.24-.11.38,0,.21.08.39.24.53s.39.21.7.21.58-.07.81-.2c.24-.13.41-.32.52-.55.08-.18.13-.44.13-.79v-.29Z" style="fill: #fff;"/>
      <path d="M133.34,18.91l.77.11c.03.24.12.41.27.52.2.15.46.22.8.22.37,0,.65-.07.85-.22s.33-.35.4-.62c.04-.16.06-.5.06-1.02-.35.41-.78.61-1.29.61-.64,0-1.14-.23-1.49-.69s-.53-1.02-.53-1.67c0-.45.08-.86.24-1.23.16-.38.39-.67.7-.87s.67-.31,1.08-.31c.55,0,1,.22,1.36.67v-.56h.73v4.03c0,.73-.07,1.24-.22,1.54-.15.3-.38.54-.7.72-.32.18-.72.26-1.18.26-.56,0-1.01-.13-1.35-.38-.34-.25-.51-.63-.5-1.13ZM133.99,16.11c0,.61.12,1.06.36,1.34s.55.42.91.42.67-.14.91-.42c.25-.28.37-.72.37-1.32s-.13-1-.38-1.29c-.25-.29-.56-.43-.92-.43s-.65.14-.9.43c-.25.29-.37.71-.37,1.27Z" style="fill: #fff;"/>
      <path d="M141.69,17.02l.82.1c-.13.48-.37.85-.72,1.11s-.79.4-1.34.4c-.68,0-1.22-.21-1.62-.63-.4-.42-.6-1.01-.6-1.77s.2-1.39.61-1.83.93-.65,1.57-.65,1.13.21,1.53.64.59,1.02.59,1.79c0,.05,0,.12,0,.21h-3.48c.03.51.17.9.44,1.18.26.27.59.41.98.41.29,0,.54-.08.74-.23s.37-.4.49-.73ZM139.09,15.74h2.61c-.04-.39-.13-.69-.3-.88-.25-.3-.58-.46-.98-.46-.36,0-.67.12-.92.36-.25.24-.38.57-.41.98Z" style="fill: #fff;"/>
      <path d="M143.7,18.52v-.9h.9v.9c0,.33-.06.6-.18.8-.12.2-.3.36-.56.47l-.22-.34c.17-.07.29-.18.37-.32.08-.14.12-.35.13-.61h-.45Z" style="fill: #fff;"/>
      <path d="M53.76,22.88h.85v3.72c0,.65-.07,1.16-.22,1.54s-.41.69-.79.93c-.38.24-.88.36-1.51.36s-1.1-.1-1.48-.31-.66-.51-.82-.9c-.16-.39-.25-.93-.25-1.62v-3.72h.85v3.72c0,.56.05.97.16,1.24.1.26.28.47.54.61.25.14.56.22.93.22.63,0,1.07-.14,1.34-.43.27-.28.4-.83.4-1.64v-3.72Z" style="fill: #fff;"/>
      <path d="M55.61,27.93l.78-.12c.04.31.17.55.37.72.2.17.48.25.84.25s.63-.07.81-.22c.18-.15.26-.32.26-.52,0-.18-.08-.32-.23-.42-.11-.07-.38-.16-.81-.27-.58-.15-.98-.27-1.21-.38-.22-.11-.39-.25-.51-.44-.12-.19-.17-.4-.17-.63,0-.21.05-.4.14-.58.09-.18.22-.32.39-.44.12-.09.29-.17.5-.23.21-.06.44-.09.68-.09.37,0,.69.05.96.16.28.11.48.25.61.43.13.18.22.42.27.72l-.77.11c-.04-.24-.14-.43-.31-.56-.17-.13-.41-.2-.71-.2-.36,0-.62.06-.78.18s-.23.26-.23.42c0,.1.03.19.1.28.06.08.17.16.3.21.08.03.31.1.7.2.56.15.95.27,1.17.37.22.09.39.23.52.42s.19.41.19.68-.08.51-.23.75c-.15.23-.38.41-.67.54-.29.13-.62.19-.98.19-.61,0-1.07-.13-1.39-.38-.32-.25-.52-.62-.61-1.12Z" style="fill: #fff;"/>
      <path d="M63.62,27.82l.82.1c-.13.48-.37.85-.72,1.11s-.79.4-1.34.4c-.68,0-1.22-.21-1.62-.63-.4-.42-.6-1.01-.6-1.77s.2-1.39.61-1.83.93-.65,1.57-.65,1.13.21,1.53.64.59,1.02.59,1.79c0,.05,0,.12,0,.21h-3.48c.03.51.17.9.44,1.18.26.27.59.41.98.41.29,0,.54-.08.74-.23s.37-.4.49-.73ZM61.02,26.54h2.61c-.04-.39-.13-.69-.3-.88-.25-.3-.58-.46-.98-.46-.36,0-.67.12-.92.36-.25.24-.38.57-.41.98Z" style="fill: #fff;"/>
      <path d="M67.64,26.99c0-.86.24-1.5.72-1.92.4-.35.89-.52,1.47-.52.64,0,1.17.21,1.57.63.41.42.61,1,.61,1.74,0,.6-.09,1.07-.27,1.42-.18.34-.44.61-.79.8-.34.19-.72.29-1.13.29-.65,0-1.18-.21-1.58-.63-.4-.42-.6-1.02-.6-1.81ZM68.45,26.99c0,.6.13,1.05.39,1.34.26.3.59.45.98.45s.72-.15.98-.45.39-.75.39-1.37c0-.58-.13-1.01-.39-1.31-.26-.3-.59-.45-.98-.45s-.72.15-.98.44-.39.74-.39,1.34Z" style="fill: #fff;"/>
      <path d="M73.13,29.32v-4.05h-.7v-.62h.7v-.5c0-.31.03-.55.08-.7.08-.21.21-.37.4-.5.19-.13.46-.19.81-.19.22,0,.47.03.74.08l-.12.69c-.16-.03-.32-.04-.47-.04-.24,0-.41.05-.51.15-.1.1-.15.29-.15.58v.43h.91v.62h-.91v4.05h-.79Z" style="fill: #fff;"/>
      <path d="M76.84,29.32l2.47-6.44h.92l2.64,6.44h-.97l-.75-1.95h-2.69l-.71,1.95h-.91ZM78.69,26.68h2.18l-.67-1.78c-.21-.54-.36-.99-.46-1.34-.08.41-.2.82-.35,1.23l-.71,1.89Z" style="fill: #fff;"/>
      <path d="M83.43,29.32v-6.44h.79v6.44h-.79Z" style="fill: #fff;"/>
      <path d="M88.49,27.61l.78.1c-.08.54-.3.96-.65,1.26-.35.3-.78.46-1.29.46-.64,0-1.15-.21-1.54-.63-.39-.42-.58-1.02-.58-1.8,0-.5.08-.94.25-1.32s.42-.66.76-.85c.34-.19.71-.28,1.11-.28.51,0,.92.13,1.24.38.32.26.53.62.62,1.09l-.77.12c-.07-.31-.2-.55-.39-.71s-.41-.24-.67-.24c-.4,0-.72.14-.97.43-.25.29-.37.74-.37,1.36s.12,1.08.36,1.37.55.43.94.43c.31,0,.57-.09.78-.29s.34-.48.4-.88Z" style="fill: #fff;"/>
      <path d="M89.65,26.99c0-.86.24-1.5.72-1.92.4-.35.89-.52,1.47-.52.64,0,1.17.21,1.57.63.41.42.61,1,.61,1.74,0,.6-.09,1.07-.27,1.42-.18.34-.44.61-.79.8-.34.19-.72.29-1.13.29-.65,0-1.18-.21-1.58-.63-.4-.42-.6-1.02-.6-1.81ZM90.46,26.99c0,.6.13,1.05.39,1.34.26.3.59.45.98.45s.72-.15.98-.45.39-.75.39-1.37c0-.58-.13-1.01-.39-1.31-.26-.3-.59-.45-.98-.45s-.72.15-.98.44-.39.74-.39,1.34Z" style="fill: #fff;"/>
      <path d="M94.95,29.32v-6.44h.79v2.31c.37-.43.83-.64,1.4-.64.35,0,.65.07.9.2.25.14.44.33.55.56.11.24.17.59.17,1.05v2.96h-.79v-2.96c0-.4-.09-.68-.26-.86-.17-.18-.41-.27-.73-.27-.23,0-.46.06-.66.18-.21.12-.35.29-.44.5s-.13.5-.13.86v2.55h-.79Z" style="fill: #fff;"/>
      <path d="M99.66,26.99c0-.86.24-1.5.72-1.92.4-.35.89-.52,1.47-.52.64,0,1.17.21,1.57.63.41.42.61,1,.61,1.74,0,.6-.09,1.07-.27,1.42-.18.34-.44.61-.79.8-.34.19-.72.29-1.13.29-.65,0-1.18-.21-1.58-.63-.4-.42-.6-1.02-.6-1.81ZM100.47,26.99c0,.6.13,1.05.39,1.34.26.3.59.45.98.45s.72-.15.98-.45.39-.75.39-1.37c0-.58-.13-1.01-.39-1.31-.26-.3-.59-.45-.98-.45s-.72.15-.98.44-.39.74-.39,1.34Z" style="fill: #fff;"/>
      <path d="M104.94,29.32v-6.44h.79v6.44h-.79Z" style="fill: #fff;"/>
    </g>
    <rect x="49.24" y="36" width="81" height="1" style="fill: #fff;"/>
    <g>
      <rect x="48.83" y="41.28" width="114.75" height="18.05" style="fill: none;"/>
      <path d="M49.67,47.72v-6.44h.85v6.44h-.85Z" style="fill: #fff;"/>
      <path d="M51.93,47.72v-4.67h.71v.66c.34-.51.84-.77,1.49-.77.28,0,.54.05.78.15.24.1.41.23.53.4s.2.36.25.58c.03.15.04.4.04.77v2.87h-.79v-2.84c0-.32-.03-.56-.09-.72-.06-.16-.17-.29-.33-.38-.16-.09-.34-.14-.55-.14-.34,0-.63.11-.87.32s-.37.62-.37,1.22v2.55h-.79Z" style="fill: #fff;"/>
      <path d="M56.62,45.79v-.79h2.43v.79h-2.43Z" style="fill: #fff;"/>
      <path d="M63.05,45.2v-.76h2.73s0,2.39,0,2.39c-.42.33-.85.58-1.3.75-.45.17-.9.25-1.37.25-.63,0-1.21-.13-1.72-.41-.52-.27-.91-.66-1.17-1.18-.26-.51-.4-1.08-.4-1.72s.13-1.21.39-1.76c.26-.54.64-.95,1.13-1.21s1.06-.4,1.7-.4c.47,0,.89.08,1.26.23.38.15.67.36.89.63s.38.62.49,1.05l-.77.21c-.1-.33-.22-.59-.36-.77s-.35-.34-.62-.45c-.27-.11-.56-.17-.89-.17-.39,0-.73.06-1.01.18-.28.12-.51.27-.69.47-.17.19-.31.41-.41.64-.16.4-.25.83-.25,1.3,0,.57.1,1.05.3,1.44.2.39.49.67.86.86s.78.28,1.2.28c.37,0,.73-.07,1.08-.21.35-.14.62-.29.8-.46v-1.2h-1.89Z" style="fill: #fff;"/>
      <path d="M69.98,47.15c-.29.25-.58.43-.85.53-.27.1-.56.15-.87.15-.51,0-.91-.12-1.18-.38-.28-.25-.41-.57-.41-.96,0-.23.05-.44.16-.63.1-.19.24-.34.41-.46s.36-.2.57-.26c.16-.04.39-.08.7-.12.64-.08,1.11-.17,1.41-.27,0-.11,0-.18,0-.21,0-.32-.07-.55-.22-.68-.2-.18-.5-.27-.9-.27-.37,0-.65.06-.82.2-.18.13-.31.36-.39.69l-.77-.11c.07-.33.19-.6.35-.8.16-.2.39-.36.7-.47.3-.11.66-.17,1.06-.17s.72.05.97.14.43.21.55.35c.12.14.2.32.25.54.03.14.04.38.04.73v1.05c0,.74.02,1.2.05,1.39.03.2.1.38.2.56h-.83c-.08-.16-.13-.36-.16-.58ZM69.91,45.38c-.29.12-.72.22-1.29.3-.33.05-.56.1-.69.16s-.24.14-.31.26c-.07.11-.11.24-.11.38,0,.21.08.39.24.53s.39.21.7.21.58-.07.81-.2c.24-.13.41-.32.52-.55.08-.18.13-.44.13-.79v-.29Z" style="fill: #fff;"/>
      <path d="M71.94,47.72v-4.67h.71v.66c.15-.23.34-.41.58-.55.24-.14.52-.21.83-.21.35,0,.63.07.85.22.22.14.38.34.47.6.37-.54.85-.82,1.44-.82.46,0,.82.13,1.07.38.25.26.37.65.37,1.18v3.2h-.79v-2.94c0-.32-.03-.54-.08-.68-.05-.14-.14-.25-.28-.34s-.29-.13-.47-.13c-.33,0-.6.11-.82.33-.22.22-.33.57-.33,1.05v2.71h-.79v-3.03c0-.35-.06-.62-.19-.79s-.34-.26-.63-.26c-.22,0-.43.06-.62.18-.19.12-.33.29-.41.51s-.13.55-.13.97v2.42h-.79Z" style="fill: #fff;"/>
      <path d="M82.63,46.22l.82.1c-.13.48-.37.85-.72,1.11s-.79.4-1.34.4c-.68,0-1.22-.21-1.62-.63-.4-.42-.6-1.01-.6-1.77s.2-1.39.61-1.83.93-.65,1.57-.65,1.13.21,1.53.64.59,1.02.59,1.79c0,.05,0,.12,0,.21h-3.48c.03.51.17.9.44,1.18.26.27.59.41.98.41.29,0,.54-.08.74-.23s.37-.4.49-.73ZM80.03,44.94h2.61c-.04-.39-.13-.69-.3-.88-.25-.3-.58-.46-.98-.46-.36,0-.67.12-.92.36-.25.24-.38.57-.41.98Z" style="fill: #fff;"/>
      <path d="M87.04,47.72v-6.44h2.43c.43,0,.75.02.98.06.32.05.58.15.8.3.21.15.39.36.52.62s.2.56.2.88c0,.55-.17,1.01-.52,1.39-.35.38-.98.57-1.89.57h-1.65v2.62h-.85ZM87.89,44.34h1.67c.55,0,.94-.1,1.17-.31.23-.2.35-.49.35-.87,0-.27-.07-.5-.2-.69-.14-.19-.32-.32-.54-.38-.14-.04-.41-.06-.8-.06h-1.65v2.3Z" style="fill: #fff;"/>
      <path d="M96,47.72v-.69c-.36.53-.86.79-1.48.79-.28,0-.53-.05-.77-.16s-.42-.24-.53-.4c-.12-.16-.2-.36-.24-.59-.03-.16-.05-.4-.05-.74v-2.89h.79v2.59c0,.41.02.69.05.83.05.21.16.37.32.49.16.12.36.18.6.18s.46-.06.67-.18c.21-.12.35-.29.44-.5.09-.21.13-.51.13-.91v-2.5h.79v4.67h-.71Z" style="fill: #fff;"/>
      <path d="M97.94,47.72v-4.67h.71v.71c.18-.33.35-.55.5-.66.15-.11.32-.16.51-.16.27,0,.54.08.81.25l-.27.73c-.19-.12-.39-.17-.58-.17-.17,0-.33.05-.47.16-.14.1-.24.25-.29.43-.09.28-.13.59-.13.92v2.44h-.79Z" style="fill: #fff;"/>
      <path d="M103.99,46.01l.78.1c-.08.54-.3.96-.65,1.26-.35.3-.78.46-1.29.46-.64,0-1.15-.21-1.54-.63-.39-.42-.58-1.02-.58-1.8,0-.5.08-.94.25-1.32s.42-.66.76-.85c.34-.19.71-.28,1.11-.28.51,0,.92.13,1.24.38.32.26.53.62.62,1.09l-.77.12c-.07-.31-.2-.55-.39-.71s-.41-.24-.67-.24c-.4,0-.72.14-.97.43-.25.29-.37.74-.37,1.36s.12,1.08.36,1.37.55.43.94.43c.31,0,.57-.09.78-.29s.34-.48.4-.88Z" style="fill: #fff;"/>
      <path d="M105.44,47.72v-6.44h.79v2.31c.37-.43.83-.64,1.4-.64.35,0,.65.07.9.2.25.14.44.33.55.56.11.24.17.59.17,1.05v2.96h-.79v-2.96c0-.4-.09-.68-.26-.86-.17-.18-.41-.27-.73-.27-.23,0-.46.06-.66.18-.21.12-.35.29-.44.5s-.13.5-.13.86v2.55h-.79Z" style="fill: #fff;"/>
      <path d="M113.49,47.15c-.29.25-.58.43-.85.53-.27.1-.56.15-.87.15-.51,0-.91-.12-1.18-.38-.28-.25-.41-.57-.41-.96,0-.23.05-.44.16-.63.1-.19.24-.34.41-.46s.36-.2.57-.26c.16-.04.39-.08.7-.12.64-.08,1.11-.17,1.41-.27,0-.11,0-.18,0-.21,0-.32-.07-.55-.22-.68-.2-.18-.5-.27-.9-.27-.37,0-.65.06-.82.2-.18.13-.31.36-.39.69l-.77-.11c.07-.33.19-.6.35-.8.16-.2.39-.36.7-.47.3-.11.66-.17,1.06-.17s.72.05.97.14.43.21.55.35c.12.14.2.32.25.54.03.14.04.38.04.73v1.05c0,.74.02,1.2.05,1.39.03.2.1.38.2.56h-.83c-.08-.16-.13-.36-.16-.58ZM113.43,45.38c-.29.12-.72.22-1.29.3-.33.05-.56.1-.69.16s-.24.14-.31.26c-.07.11-.11.24-.11.38,0,.21.08.39.24.53s.39.21.7.21.58-.07.81-.2c.24-.13.41-.32.52-.55.08-.18.13-.44.13-.79v-.29Z" style="fill: #fff;"/>
      <path d="M115.14,46.33l.78-.12c.04.31.17.55.37.72.2.17.48.25.84.25s.63-.07.81-.22c.18-.15.26-.32.26-.52,0-.18-.08-.32-.23-.42-.11-.07-.38-.16-.81-.27-.58-.15-.98-.27-1.21-.38-.22-.11-.39-.25-.51-.44-.12-.19-.17-.4-.17-.63,0-.21.05-.4.14-.58.09-.18.22-.32.39-.44.12-.09.29-.17.5-.23.21-.06.44-.09.68-.09.37,0,.69.05.96.16.28.11.48.25.61.43.13.18.22.42.27.72l-.77.11c-.04-.24-.14-.43-.31-.56-.17-.13-.41-.2-.71-.2-.36,0-.62.06-.78.18s-.23.26-.23.42c0,.1.03.19.1.28.06.08.17.16.3.21.08.03.31.1.7.2.56.15.95.27,1.17.37.22.09.39.23.52.42s.19.41.19.68-.08.51-.23.75c-.15.23-.38.41-.67.54-.29.13-.62.19-.98.19-.61,0-1.07-.13-1.39-.38-.32-.25-.52-.62-.61-1.12Z" style="fill: #fff;"/>
      <path d="M123.15,46.22l.82.1c-.13.48-.37.85-.72,1.11s-.79.4-1.34.4c-.68,0-1.22-.21-1.62-.63-.4-.42-.6-1.01-.6-1.77s.2-1.39.61-1.83.93-.65,1.57-.65,1.13.21,1.53.64.59,1.02.59,1.79c0,.05,0,.12,0,.21h-3.48c.03.51.17.9.44,1.18.26.27.59.41.98.41.29,0,.54-.08.74-.23s.37-.4.49-.73ZM120.55,44.94h2.61c-.04-.39-.13-.69-.3-.88-.25-.3-.58-.46-.98-.46-.36,0-.67.12-.92.36-.25.24-.38.57-.41.98Z" style="fill: #fff;"/>
      <path d="M124.64,46.33l.78-.12c.04.31.17.55.37.72.2.17.48.25.84.25s.63-.07.81-.22c.18-.15.26-.32.26-.52,0-.18-.08-.32-.23-.42-.11-.07-.38-.16-.81-.27-.58-.15-.98-.27-1.21-.38-.22-.11-.39-.25-.51-.44-.12-.19-.17-.4-.17-.63,0-.21.05-.4.14-.58.09-.18.22-.32.39-.44.12-.09.29-.17.5-.23.21-.06.44-.09.68-.09.37,0,.69.05.96.16.28.11.48.25.61.43.13.18.22.42.27.72l-.77.11c-.04-.24-.14-.43-.31-.56-.17-.13-.41-.2-.71-.2-.36,0-.62.06-.78.18s-.23.26-.23.42c0,.1.03.19.1.28.06.08.17.16.3.21.08.03.31.1.7.2.56.15.95.27,1.17.37.22.09.39.23.52.42s.19.41.19.68-.08.51-.23.75c-.15.23-.38.41-.67.54-.29.13-.62.19-.98.19-.61,0-1.07-.13-1.39-.38-.32-.25-.52-.62-.61-1.12Z" style="fill: #fff;"/>
      <path d="M129.67,47.72v-.9h.9v.9c0,.33-.06.6-.18.8-.12.2-.3.36-.56.47l-.22-.34c.17-.07.29-.18.37-.32.08-.14.12-.35.13-.61h-.45Z" style="fill: #fff;"/>
      <path d="M53.76,52.08h.85v3.72c0,.65-.07,1.16-.22,1.54s-.41.69-.79.93c-.38.24-.88.36-1.51.36s-1.1-.1-1.48-.31-.66-.51-.82-.9c-.16-.39-.25-.93-.25-1.62v-3.72h.85v3.72c0,.56.05.97.16,1.24.1.26.28.47.54.61.25.14.56.22.93.22.63,0,1.07-.14,1.34-.43.27-.28.4-.83.4-1.64v-3.72Z" style="fill: #fff;"/>
      <path d="M55.61,57.13l.78-.12c.04.31.17.55.37.72.2.17.48.25.84.25s.63-.07.81-.22c.18-.15.26-.32.26-.52,0-.18-.08-.32-.23-.42-.11-.07-.38-.16-.81-.27-.58-.15-.98-.27-1.21-.38-.22-.11-.39-.25-.51-.44-.12-.19-.17-.4-.17-.63,0-.21.05-.4.14-.58.09-.18.22-.32.39-.44.12-.09.29-.17.5-.23.21-.06.44-.09.68-.09.37,0,.69.05.96.16.28.11.48.25.61.43.13.18.22.42.27.72l-.77.11c-.04-.24-.14-.43-.31-.56-.17-.13-.41-.2-.71-.2-.36,0-.62.06-.78.18s-.23.26-.23.42c0,.1.03.19.1.28.06.08.17.16.3.21.08.03.31.1.7.2.56.15.95.27,1.17.37.22.09.39.23.52.42s.19.41.19.68-.08.51-.23.75c-.15.23-.38.41-.67.54-.29.13-.62.19-.98.19-.61,0-1.07-.13-1.39-.38-.32-.25-.52-.62-.61-1.12Z" style="fill: #fff;"/>
      <path d="M63.62,57.02l.82.1c-.13.48-.37.85-.72,1.11s-.79.4-1.34.4c-.68,0-1.22-.21-1.62-.63-.4-.42-.6-1.01-.6-1.77s.2-1.39.61-1.83.93-.65,1.57-.65,1.13.21,1.53.64.59,1.02.59,1.79c0,.05,0,.12,0,.21h-3.48c.03.51.17.9.44,1.18.26.27.59.41.98.41.29,0,.54-.08.74-.23s.37-.4.49-.73ZM61.02,55.74h2.61c-.04-.39-.13-.69-.3-.88-.25-.3-.58-.46-.98-.46-.36,0-.67.12-.92.36-.25.24-.38.57-.41.98Z" style="fill: #fff;"/>
      <path d="M65.42,58.52v-4.67h.71v.71c.18-.33.35-.55.5-.66.15-.11.32-.16.51-.16.27,0,.54.08.81.25l-.27.73c-.19-.12-.39-.17-.58-.17-.17,0-.33.05-.47.16-.14.1-.24.25-.29.43-.09.28-.13.59-.13.92v2.44h-.79Z" style="fill: #fff;"/>
      <path d="M68.11,57.13l.78-.12c.04.31.17.55.37.72.2.17.48.25.84.25s.63-.07.81-.22c.18-.15.26-.32.26-.52,0-.18-.08-.32-.23-.42-.11-.07-.38-.16-.81-.27-.58-.15-.98-.27-1.21-.38-.22-.11-.39-.25-.51-.44-.12-.19-.17-.4-.17-.63,0-.21.05-.4.14-.58.09-.18.22-.32.39-.44.12-.09.29-.17.5-.23.21-.06.44-.09.68-.09.37,0,.69.05.96.16.28.11.48.25.61.43.13.18.22.42.27.72l-.77.11c-.04-.24-.14-.43-.31-.56-.17-.13-.41-.2-.71-.2-.36,0-.62.06-.78.18s-.23.26-.23.42c0,.1.03.19.1.28.06.08.17.16.3.21.08.03.31.1.7.2.56.15.95.27,1.17.37.22.09.39.23.52.42s.19.41.19.68-.08.51-.23.75c-.15.23-.38.41-.67.54-.29.13-.62.19-.98.19-.61,0-1.07-.13-1.39-.38-.32-.25-.52-.62-.61-1.12Z" style="fill: #fff;"/>
      <path d="M75.68,58.52v-6.44h.85v6.44h-.85Z" style="fill: #fff;"/>
      <path d="M77.93,58.52v-4.67h.71v.66c.34-.51.84-.77,1.49-.77.28,0,.54.05.78.15.24.1.41.23.53.4s.2.36.25.58c.03.15.04.4.04.77v2.87h-.79v-2.84c0-.32-.03-.56-.09-.72-.06-.16-.17-.29-.33-.38-.16-.09-.34-.14-.55-.14-.34,0-.63.11-.87.32s-.37.62-.37,1.22v2.55h-.79Z" style="fill: #fff;"/>
      <path d="M84.66,57.82l.11.7c-.22.05-.42.07-.6.07-.29,0-.51-.05-.67-.14-.16-.09-.27-.21-.33-.36-.06-.15-.1-.46-.1-.93v-2.68h-.58v-.62h.58v-1.16l.79-.47v1.63h.8v.62h-.8v2.73c0,.23.01.37.04.43s.07.12.14.15c.06.04.15.06.27.06.09,0,.2,0,.35-.03Z" style="fill: #fff;"/>
      <path d="M88.63,57.02l.82.1c-.13.48-.37.85-.72,1.11s-.79.4-1.34.4c-.68,0-1.22-.21-1.62-.63-.4-.42-.6-1.01-.6-1.77s.2-1.39.61-1.83.93-.65,1.57-.65,1.13.21,1.53.64.59,1.02.59,1.79c0,.05,0,.12,0,.21h-3.48c.03.51.17.9.44,1.18.26.27.59.41.98.41.29,0,.54-.08.74-.23s.37-.4.49-.73ZM86.03,55.74h2.61c-.04-.39-.13-.69-.3-.88-.25-.3-.58-.46-.98-.46-.36,0-.67.12-.92.36-.25.24-.38.57-.41.98Z" style="fill: #fff;"/>
      <path d="M90.43,58.52v-4.67h.71v.71c.18-.33.35-.55.5-.66.15-.11.32-.16.51-.16.27,0,.54.08.81.25l-.27.73c-.19-.12-.39-.17-.58-.17-.17,0-.33.05-.47.16-.14.1-.24.25-.29.43-.09.28-.13.59-.13.92v2.44h-.79Z" style="fill: #fff;"/>
      <path d="M96.48,57.95c-.29.25-.58.43-.85.53-.27.1-.56.15-.87.15-.51,0-.91-.12-1.18-.38-.28-.25-.41-.57-.41-.96,0-.23.05-.44.16-.63.1-.19.24-.34.41-.46s.36-.2.57-.26c.16-.04.39-.08.7-.12.64-.08,1.11-.17,1.41-.27,0-.11,0-.18,0-.21,0-.32-.07-.55-.22-.68-.2-.18-.5-.27-.9-.27-.37,0-.65.06-.82.2-.18.13-.31.36-.39.69l-.77-.11c.07-.33.19-.6.35-.8.16-.2.39-.36.7-.47.3-.11.66-.17,1.06-.17s.72.05.97.14.43.21.55.35c.12.14.2.32.25.54.03.14.04.38.04.73v1.05c0,.74.02,1.2.05,1.39.03.2.1.38.2.56h-.83c-.08-.16-.13-.36-.16-.58ZM96.42,56.18c-.29.12-.72.22-1.29.3-.33.05-.56.1-.69.16s-.24.14-.31.26c-.07.11-.11.24-.11.38,0,.21.08.39.24.53s.39.21.7.21.58-.07.81-.2c.24-.13.41-.32.52-.55.08-.18.13-.44.13-.79v-.29Z" style="fill: #fff;"/>
      <path d="M101.49,56.81l.78.1c-.08.54-.3.96-.65,1.26-.35.3-.78.46-1.29.46-.64,0-1.15-.21-1.54-.63-.39-.42-.58-1.02-.58-1.8,0-.5.08-.94.25-1.32s.42-.66.76-.85c.34-.19.71-.28,1.11-.28.51,0,.92.13,1.24.38.32.26.53.62.62,1.09l-.77.12c-.07-.31-.2-.55-.39-.71s-.41-.24-.67-.24c-.4,0-.72.14-.97.43-.25.29-.37.74-.37,1.36s.12,1.08.36,1.37.55.43.94.43c.31,0,.57-.09.78-.29s.34-.48.4-.88Z" style="fill: #fff;"/>
      <path d="M104.67,57.82l.11.7c-.22.05-.42.07-.6.07-.29,0-.51-.05-.67-.14-.16-.09-.27-.21-.33-.36-.06-.15-.1-.46-.1-.93v-2.68h-.58v-.62h.58v-1.16l.79-.47v1.63h.8v.62h-.8v2.73c0,.23.01.37.04.43s.07.12.14.15c.06.04.15.06.27.06.09,0,.2,0,.35-.03Z" style="fill: #fff;"/>
    </g>
  </g>
</svg>